<svg xmlns="http://www.w3.org/2000/svg" width="204.148" height="204.148" viewBox="0 0 204.148 204.148">
  <g id="Group_106" data-name="Group 106" transform="translate(-832.926 -450)">
    <g id="Group_22" data-name="Group 22" transform="translate(875.761 482.402)">
      <path id="Path_1" data-name="Path 1" d="M119.592,596.837c-6.182,3.542-7.627,6.7-5.73,7.2,1.742.455,7.313-1.072,12.481-4.092" transform="translate(-113.084 -472.715)" fill="#1a1818" stroke="#1a1818" stroke-miterlimit="10" stroke-width="1"/>
      <rect id="Rectangle_6" data-name="Rectangle 6" width="20.734" height="5.533" transform="matrix(0.85, -0.527, 0.527, 0.85, 6.382, 124.219)" fill="#1a1818" stroke="#1a1818" stroke-miterlimit="10" stroke-width="1"/>
      <rect id="Rectangle_7" data-name="Rectangle 7" width="90.208" height="6.253" transform="matrix(0.85, -0.527, 0.527, 0.85, 10.243, 121.824)" fill="#1a1818" stroke="#1a1818" stroke-miterlimit="10" stroke-width="1"/>
      <path id="Path_2" data-name="Path 2" d="M134.553,598.262c-5.7,4.269-6.754,7.583-4.81,7.845,1.785.24,7.127-1.956,11.89-5.581" transform="translate(-118.502 -473.205)" fill="#1a1818" stroke="#1a1818" stroke-miterlimit="10" stroke-width="1"/>
      <rect id="Rectangle_8" data-name="Rectangle 8" width="20.734" height="5.533" transform="translate(15.936 125.169) rotate(-38.801)" fill="#1a1818" stroke="#1a1818" stroke-miterlimit="10" stroke-width="1"/>
      <rect id="Rectangle_9" data-name="Rectangle 9" width="81.082" height="6.253" transform="translate(19.478 122.322) rotate(-38.801)" fill="#1a1818" stroke="#1a1818" stroke-miterlimit="10" stroke-width="1"/>
      <path id="Path_5" data-name="Path 5" d="M184.07,543.826l7.142,1.991,5.7-32.478-7.142-1.991Z" transform="translate(-137.485 -443.328)" fill="#1a1818" stroke="#1a1818" stroke-miterlimit="10" stroke-width="1"/>
      <path id="Path_6" data-name="Path 6" d="M192.721,531.274l6.036,5.439,14.611-34.4-6.036-5.439Z" transform="translate(-140.459 -438.352)" fill="#1a1818" stroke="#1a1818" stroke-miterlimit="10" stroke-width="1"/>
      <path id="Path_7" data-name="Path 7" d="M202.007,507.7c5.555,2.439,13.462-.593,16.768-5.995,3.212-5.247,1.179-11.253-4.808-12.689" transform="translate(-143.651 -435.653)" fill="#1a1818" stroke="#1a1818" stroke-miterlimit="10" stroke-width="1"/>
      <path id="Path_8" data-name="Path 8" d="M192.884,501.564l10.462,8.234,9.461-16.514-10.462-8.234Z" transform="translate(-140.515 -434.288)" fill="#1a1818" stroke="#1a1818" stroke-miterlimit="10" stroke-width="1"/>
      <path id="Path_9" data-name="Path 9" d="M216.427,454.5c8.665,11.478,11.164,26.518,8.056,33.95a9.55,9.55,0,0,1-7.62,5.87" transform="translate(-148.608 -423.785)" fill="#1a1818" stroke="#1a1818" stroke-miterlimit="10" stroke-width="1"/>
      <path id="Path_10" data-name="Path 10" d="M244.564,464.17" transform="translate(-158.28 -427.11)" fill="#1a1818" stroke="#1a1818" stroke-miterlimit="10" stroke-width="1"/>
      <path id="Path_11" data-name="Path 11" d="M231.835,442.576l8.162,8.21,2.664,5.8,1.589,5.261,2.485,3.1,4.761.139-.04-8.529-6.283-10.915-9.364-4.453" transform="translate(-153.905 -419.209)" fill="#1a1818" stroke="#1a1818" stroke-miterlimit="10" stroke-width="1"/>
      <path id="Path_12" data-name="Path 12" d="M230.3,443.773,226.97,468.5l-3.274,11.69-11.278-6.677,8.589-31.878" transform="translate(-147.23 -419.365)" fill="#1a1818" stroke="#1a1818" stroke-miterlimit="10" stroke-width="1"/>
      <path id="Path_13" data-name="Path 13" d="M224.9,446.237l6.882,1.579,4.8,2.924,4.468,2.847,2.486-4.634L231.3,440.939" transform="translate(-151.521 -419.125)" fill="#1a1818" stroke="#1a1818" stroke-miterlimit="10" stroke-width="1"/>
      <path id="Path_14" data-name="Path 14" d="M217.981,442.641l2.233,23.371-.937,11.36-14.891-4.062,2.157-30.916" transform="translate(-144.469 -419.625)" fill="#1a1818" stroke="#1a1818" stroke-miterlimit="10" stroke-width="1"/>
      <path id="Path_15" data-name="Path 15" d="M179.426,540.495l6.036,5.439,14.611-34.4-6.036-5.439Z" transform="translate(-135.889 -441.522)" fill="#1a1818" stroke="#1a1818" stroke-miterlimit="10" stroke-width="1"/>
      <path id="Path_16" data-name="Path 16" d="M174.44,549.189,179.411,554l15.265-34.014-4.971-4.812Z" transform="translate(-134.175 -444.643)" fill="#1a1818" stroke="#1a1818" stroke-miterlimit="10" stroke-width="1"/>
      <path id="Path_17" data-name="Path 17" d="M207.742,438.571l-10.926,6.317-3.995,4.034-2.63,3.547-3.408,2.3-5.734.743,1.221-5.4,9.042-7.769,11.851-4.105" transform="translate(-136.447 -418.196)" fill="#1a1818" stroke="#1a1818" stroke-miterlimit="10" stroke-width="1"/>
      <path id="Path_18" data-name="Path 18" d="M202.972,450.6l-7.772,1.784-5.4,3.413-5.022,3.326-2.88-5.548,13.757-9.367" transform="translate(-136.738 -420.248)" fill="#1a1818" stroke="#1a1818" stroke-miterlimit="10" stroke-width="1"/>
      <path id="Path_19" data-name="Path 19" d="M167.008,465.855c-3.848,2.3-5.365,4.684-4.233,5.44,1.214.81,6.182.226,11.266-2.3" transform="translate(-130.039 -427.69)" fill="#1a1818" stroke="#1a1818" stroke-miterlimit="10" stroke-width="1"/>
      <rect id="Rectangle_10" data-name="Rectangle 10" width="4.297" height="13.871" transform="matrix(0.579, 0.815, -0.815, 0.579, 46.527, 31.41)" fill="#1a1818" stroke="#1a1818" stroke-miterlimit="10" stroke-width="1"/>
      <rect id="Rectangle_11" data-name="Rectangle 11" width="3.363" height="7.101" transform="matrix(0.579, 0.815, -0.815, 0.579, 49.89, 33.404)" fill="#1a1818" stroke="#1a1818" stroke-miterlimit="10" stroke-width="1"/>
      <rect id="Rectangle_12" data-name="Rectangle 12" width="4.083" height="4.083" transform="translate(42.137 35.944) rotate(41.124)" fill="#1a1818" stroke="#1a1818" stroke-miterlimit="10" stroke-width="1"/>
      <line id="Line_11" data-name="Line 11" x2="20.313" transform="translate(62.331 22.93)" fill="#1a1818" stroke="#1a1818" stroke-miterlimit="10" stroke-width="3"/>
      <path id="Path_20" data-name="Path 20" d="M220.572,446.995l10.37-1.2.958-5.388-10.421-1.588" transform="translate(-150.033 -418.397)" fill="#1a1818" stroke="#1a1818" stroke-miterlimit="10" stroke-width="1"/>
      <rect id="Rectangle_13" data-name="Rectangle 13" width="5.554" height="3.378" transform="translate(66.961 19.934) rotate(6.619)" fill="#1a1818" stroke="#1a1818" stroke-miterlimit="10" stroke-width="1"/>
      <rect id="Rectangle_14" data-name="Rectangle 14" width="1.837" height="1.453" transform="translate(43.308 40.066) rotate(-27.072)" fill="#1a1818" stroke="#1a1818" stroke-miterlimit="10" stroke-width="1"/>
      <rect id="Rectangle_15" data-name="Rectangle 15" width="4.806" height="2.068" transform="matrix(0.943, -0.332, 0.332, 0.943, 71.342, 33.321)" fill="#1a1818" stroke="#1a1818" stroke-miterlimit="10" stroke-width="1"/>
      <path id="Path_21" data-name="Path 21" d="M230.082,423.948c.152-.578,1.068-4.256-.773-6.011-.575-.548-1.714-.8-3.993-1.312-1.821-.408-2.751-.606-3.685-.39a5.791,5.791,0,0,0-3.092,1.993,6.215,6.215,0,0,0-1.166,2.284" transform="translate(-148.933 -410.602)" fill="#1a1818" stroke="#1a1818" stroke-miterlimit="10" stroke-width="1"/>
      <path id="Path_22" data-name="Path 22" d="M234.985,419.206a4.6,4.6,0,0,1,1.449,5.058,3.055,3.055,0,0,1-1.992,1.948" transform="translate(-154.801 -411.654)" fill="#1a1818" stroke="#1a1818" stroke-miterlimit="10" stroke-width="1"/>
      <path id="Path_23" data-name="Path 23" d="M234.811,423.432a9.372,9.372,0,0,0-.756,3.69c.059.56.3.558.384.543" transform="translate(-154.663 -413.107)" fill="#1a1818" stroke="#1a1818" stroke-miterlimit="10" stroke-width="1"/>
      <path id="Path_24" data-name="Path 24" d="M225.318,431.023l-7.674-1.436a1,1,0,0,1-.878-1.158l.155-.671a1.11,1.11,0,0,1,1.318-.748l7.675,1.437a1,1,0,0,1,.878,1.158l-.155.671A1.11,1.11,0,0,1,225.318,431.023Z" transform="translate(-148.717 -414.329)" fill="#1a1818" stroke="#1a1818" stroke-miterlimit="10" stroke-width="1"/>
      <path id="Path_25" data-name="Path 25" d="M214.994,430.228" transform="translate(-148.115 -415.443)" fill="#1a1818" stroke="#1a1818" stroke-miterlimit="10" stroke-width="1"/>
      <ellipse id="Ellipse_2" data-name="Ellipse 2" cx="1.812" cy="2.083" rx="1.812" ry="2.083" transform="translate(73.299 18.017) rotate(-87.025)" fill="#1a1818" stroke="#1a1818" stroke-miterlimit="10" stroke-width="1"/>
      <ellipse id="Ellipse_3" data-name="Ellipse 3" cx="1.812" cy="2.083" rx="1.812" ry="2.083" transform="translate(67.777 16.983) rotate(-87.025)" fill="#1a1818" stroke="#1a1818" stroke-miterlimit="10" stroke-width="1"/>
      <line id="Line_12" data-name="Line 12" y1="27.401" x2="38.879" transform="translate(87.712 21.459)" fill="#1a1818" stroke="#1a1818" stroke-miterlimit="10" stroke-width="2"/>
      <line id="Line_13" data-name="Line 13" y1="40.597" x2="24.784" transform="translate(34.131 4.871)" fill="#1a1818" stroke="#1a1818" stroke-miterlimit="10" stroke-width="2"/>
      <path id="Path_26" data-name="Path 26" d="M201.276,415.1l-1.608-.684.913.086.913.086.7.6.7.6Z" transform="translate(-142.847 -410.006)" fill="#1a1818" stroke="#1a1818" stroke-miterlimit="10" stroke-width="1"/>
      <path id="Path_36" data-name="Path 36" d="M0,6.109l.466-.764L3.73,0" transform="translate(58.077)" fill="#1a1818" stroke="#1a1818" stroke-width="1"/>
      <path id="Path_37" data-name="Path 37" d="M1.608.684,0,0,.913.086l.913.086.7.6.7.6Z" transform="translate(124.826 20.424) rotate(19)" fill="#1a1818" stroke="#1a1818" stroke-miterlimit="10" stroke-width="1"/>
      <path id="Path_38" data-name="Path 38" d="M0,6.109l.466-.764L3.73,0" transform="translate(127.221 16.919) rotate(21)" fill="#1a1818" stroke="#1a1818" stroke-width="1"/>
    </g>
    <rect id="Rectangle_66" data-name="Rectangle 66" width="190.194" height="17.795" transform="translate(871.519 477.499) rotate(43)" fill="red"/>
    <g id="Path_99" data-name="Path 99" transform="translate(832.926 450)" fill="none">
      <path d="M102.074,0A102.074,102.074,0,1,1,0,102.074,102.074,102.074,0,0,1,102.074,0Z" stroke="none"/>
      <path d="M 102.0741271972656 19.99998474121094 C 56.81831359863281 19.99998474121094 19.99998474121094 56.81831359863281 19.99998474121094 102.0741271972656 C 19.99998474121094 147.3299407958984 56.81831359863281 184.1482696533203 102.0741271972656 184.1482696533203 C 147.3299407958984 184.1482696533203 184.1482696533203 147.3299407958984 184.1482696533203 102.0741271972656 C 184.1482696533203 56.81831359863281 147.3299407958984 19.99998474121094 102.0741271972656 19.99998474121094 M 102.0741271972656 -1.52587890625e-05 C 158.4480895996094 -1.52587890625e-05 204.1482696533203 45.70013427734375 204.1482696533203 102.0741271972656 C 204.1482696533203 158.4480895996094 158.4480895996094 204.1482696533203 102.0741271972656 204.1482696533203 C 45.70013427734375 204.1482696533203 -1.52587890625e-05 158.4480895996094 -1.52587890625e-05 102.0741271972656 C -1.52587890625e-05 45.70013427734375 45.70013427734375 -1.52587890625e-05 102.0741271972656 -1.52587890625e-05 Z" stroke="none" fill="red"/>
    </g>
  </g>
</svg>
