<svg xmlns="http://www.w3.org/2000/svg" viewBox="0 0 33.41 47.41"><defs><style>.cls-1,.cls-16,.cls-3,.cls-6,.cls-7,.cls-8{fill:#231f20;}.cls-1,.cls-15,.cls-16,.cls-17{stroke:#231f20;}.cls-1,.cls-15,.cls-16{stroke-linecap:round;}.cls-1,.cls-15,.cls-16,.cls-17,.cls-3,.cls-4,.cls-5,.cls-6,.cls-7{stroke-miterlimit:10;}.cls-15,.cls-17,.cls-2,.cls-9{fill:#fff;}.cls-3,.cls-5{stroke:#2bb673;}.cls-3,.cls-7{stroke-width:0.4px;}.cls-13,.cls-4{fill:#ed1c24;}.cls-4,.cls-7{stroke:#ed1c24;}.cls-4,.cls-5{stroke-width:0.5px;}.cls-10,.cls-5{fill:#2bb673;}.cls-6{stroke:#6d6e71;}.cls-15,.cls-16,.cls-17,.cls-6{stroke-width:0.1px;}.cls-9{font-size:4.01px;}.cls-10,.cls-13,.cls-9{font-family:MyriadPro-Regular, Myriad Pro;}.cls-10,.cls-13{font-size:1.87px;}.cls-11{letter-spacing:0em;}.cls-12{letter-spacing:0.02em;}.cls-14{letter-spacing:-0.01em;}</style></defs><g id="Layer_2" data-name="Layer 2"><g id="Layer_1-2" data-name="Layer 1"><path class="cls-1" d="M2.47,8.19.67,18.75a12.47,12.47,0,0,0-.1,3.34c.32,1.46.61,3,.85,4.63a62.23,62.23,0,0,1,.64,9.61A12.39,12.39,0,0,0,3.71,41.4a11.05,11.05,0,0,0,3.68,3.8,11.48,11.48,0,0,0,7.54,1.61A11.8,11.8,0,0,0,23.83,40a50.85,50.85,0,0,1,3.69-8.82c.79-1.48,1.61-2.84,2.42-4.07a13.41,13.41,0,0,0,.61-1.56,12.92,12.92,0,0,0,.4-1.63l1.79-10.56C33.8,7.18,29.59,3.77,23.58,2a38.52,38.52,0,0,0-4.31-1,37.46,37.46,0,0,0-4.4-.49C8.62.2,3.52,2,2.47,8.19Z"/><path class="cls-2" d="M3.37,8.44,1.7,18.27a11.18,11.18,0,0,0-.1,3.11c.15.68.29,1.37.43,2.09.08.46.18,1.06.17,1.06s-.3-1.64-.29-1.65A11.88,11.88,0,0,0,3.4,28,11,11,0,0,1,4,29a5.57,5.57,0,0,1,.47,3A11.44,11.44,0,0,0,4,33.7s-.09.53-.13,1a10,10,0,0,0,.65,4.6A8.38,8.38,0,0,0,8,42.89a16.76,16.76,0,0,0,3.86,1.2,13.72,13.72,0,0,0,2.38.38s.42,0,.8-.07A9.66,9.66,0,0,0,20,42a11.49,11.49,0,0,0,1.3-1.33,5.06,5.06,0,0,0,.86-2.42c0-.34,0-.33,0-.83a8.5,8.5,0,0,1,.28-1.79,7.72,7.72,0,0,1,1.38-2.47A12,12,0,0,1,25,31.83h0a25,25,0,0,0,1.81-2A23.18,23.18,0,0,0,29,26.05a10.21,10.21,0,0,0,.57-1.45A11.09,11.09,0,0,0,30,23.09l1.67-9.83a6.29,6.29,0,0,0-.42-4.66c-.51-.9-1.26-1.41-2.76-2.42A20.28,20.28,0,0,0,23,3.46a35.65,35.65,0,0,0-4.24-.9,34.5,34.5,0,0,0-4-.6A18.79,18.79,0,0,0,7,3.33a5.29,5.29,0,0,0-1.71.85A6,6,0,0,0,3.37,8.44Z"/><circle class="cls-3" cx="9.09" cy="11.85" r="3.02"/><rect class="cls-4" x="12.56" y="19.36" width="14.56" height="6.04" rx="1.62" transform="translate(4.04 -3.01) rotate(9.67)"/><rect class="cls-5" x="14" y="10.9" width="14.56" height="6.04" rx="1.62" transform="translate(2.64 -3.38) rotate(9.67)"/><circle class="cls-6" cx="15.76" cy="21.65" r="2.75"/><circle class="cls-6" cx="17.2" cy="13.19" r="2.75"/><circle class="cls-7" cx="7.61" cy="20.54" r="3.02"/><circle class="cls-8" cx="18.66" cy="4.06" r="0.6"/><text class="cls-9" transform="translate(16 14.24) rotate(9.67)">2</text><text class="cls-9" transform="translate(14.45 22.63) rotate(9.67)">4</text><text class="cls-10" transform="translate(7.83 7.78) rotate(9.67)"><tspan class="cls-11">S</tspan><tspan x="0.92" y="0">ta</tspan><tspan class="cls-12" x="2.43" y="0">r</tspan><tspan x="3.09" y="0">t</tspan></text><text class="cls-13" transform="translate(4.8 25.12) rotate(9.67)"><tspan class="cls-11">S</tspan><tspan class="cls-14" x="0.92" y="0">t</tspan><tspan x="1.52" y="0">op</tspan></text><path class="cls-15" d="M24.5,13a3.88,3.88,0,0,0-.45-.76.83.83,0,0,1-.25-.56.34.34,0,0,1,.05-.14.46.46,0,0,1,.27-.25.64.64,0,0,1,.58.1,1.19,1.19,0,0,1,.46.48,1.57,1.57,0,0,1,.19.74l.34.07a1.3,1.3,0,0,1,.82.6,1.37,1.37,0,0,1,.25.87,1.1,1.1,0,0,1-.41.85c-.2.12-.32,0-.46.18s0,.37-.16.7a3.75,3.75,0,0,1-.34.44c-.22.26-.3.33-.27.4s.28,0,.44.18a.41.41,0,0,1,.08.4.55.55,0,0,1-.45.3c-.12,0-.48,0-.36,0h0s-2-.41-3.44-.63h0a1.12,1.12,0,0,1-.4-.36,1.2,1.2,0,0,1-.19-.77,1.61,1.61,0,0,1,.67-1.13,5.53,5.53,0,0,1,1.17-.37,1.4,1.4,0,0,0,.82-.41.73.73,0,0,0,.14-.36.94.94,0,0,0-.15-.54c-.2-.43-.24-.43-.32-.62s-.3-.72-.08-.95a.48.48,0,0,1,.4-.09.73.73,0,0,1,.41.19"/><line class="cls-15" x1="25.46" y1="16.86" x2="24.68" y2="16.73"/><path class="cls-15" d="M23.41,17.27c.17-.1.35-.22.33-.33s-.44-.19-.44-.32.21-.11.43-.31A.74.74,0,0,0,24,15.8c0-.25-.27-.51-.65-.62"/><path class="cls-15" d="M21.43,17a.38.38,0,0,1-.07-.41.36.36,0,0,1,.37-.2"/><path class="cls-15" d="M24.68,12.49a.18.18,0,0,0,.17,0c.09,0,.1-.21.08-.32a.52.52,0,0,0-.31-.3"/><circle class="cls-16" cx="25.84" cy="13.76" r="0.08"/><path class="cls-17" d="M20.49,22.51a1.45,1.45,0,0,1,.42-.66,2,2,0,0,1,1.17-.54,2,2,0,0,1,.82.14,2.81,2.81,0,0,1,.56.3,2.2,2.2,0,0,1,.54.47.72.72,0,0,0,.18.18l0,0c.22.08.37-.18.82-.33a.89.89,0,0,1,.7,0,.76.76,0,0,1,.38.49.58.58,0,0,1,0,.44.74.74,0,0,1-.46.33c-.27.1-.32,0-.56.13a1.12,1.12,0,0,0-.51.4.57.57,0,0,0-.15.45c.05.11.15.1.27.26s.18.24.12.34-.09.05-.72,0a.43.43,0,0,1-.22,0c-.16-.13,0-.43-.17-.53s-.13,0-.35,0-.37.07-.55.11a2.43,2.43,0,0,1-1.05,0c-.32-.08-.45-.19-.67-.12s-.15.12-.32.17-.14,0-.6,0c-.21,0-.26,0-.3-.08s0-.35.07-.39a1.19,1.19,0,0,1,.17-.22c.17-.18.23-.22.22-.25s-.77.22-.9,0a.29.29,0,0,1,.08-.31c.17-.17.44,0,.67-.13h0A1,1,0,0,0,20.49,22.51Z"/><path class="cls-17" d="M24.31,22.42a3.38,3.38,0,0,1-1,.67,3.75,3.75,0,0,1-2,.22c-.35,0-1-.19-1-.19h0l-.26.05"/><circle class="cls-17" cx="25.41" cy="22.56" r="0.07"/><ellipse class="cls-17" cx="20.8" cy="15.78" rx="0.33" ry="0.42" transform="translate(1.75 33.63) rotate(-80.33)"/></g></g></svg>