<svg xmlns="http://www.w3.org/2000/svg" width="17.994" height="17.994" viewBox="0 0 17.994 17.994">
  <path id="Icon_awesome-phone" data-name="Icon awesome-phone" d="M17.339.864,13.685.021a.849.849,0,0,0-.966.488L11.031,4.445a.841.841,0,0,0,.242.984L13.4,7.172A13.025,13.025,0,0,1,7.176,13.4L5.433,11.27a.843.843,0,0,0-.984-.242L.513,12.715a.854.854,0,0,0-.492.97l.843,3.655a.843.843,0,0,0,.822.654A16.3,16.3,0,0,0,17.993,1.687.842.842,0,0,0,17.339.864Z" transform="translate(0.001 0.001)" fill="#fff"/>
</svg>
