<?xml version="1.0" encoding="UTF-8"?>
<svg id="Lag_2" xmlns="http://www.w3.org/2000/svg" viewBox="0 0 56.85 25">
	<defs>
		<style>
			.cls-1{fill:#489ad4;}
		</style>
	</defs>
	<g id="Lag_3">
		<g>
			<path class="cls-1" d="M.03,23.65c-.05-.08-.04-.18,.06-.28l1.04-1.03c.1-.1,.2-.11,.3-.04,.48,.5,.89,.78,1.51,.78,.53,0,.97-.19,.97-.71,0-.41-.24-.5-.67-.72l-.88-.44c-.8-.4-1.51-1.01-1.51-2.14,0-1.59,1.3-2.72,3.02-2.72,1.02,0,1.85,.4,2.44,1.1,.08,.1,.08,.22-.04,.35l-1,1.02c-.11,.1-.19,.12-.29,.06-.46-.41-.84-.62-1.32-.62-.54,0-.79,.26-.79,.62s.25,.47,.85,.77l.68,.35c.77,.4,1.56,.85,1.56,2.13,0,1.74-1.38,2.85-3.14,2.85-1.37,0-2.4-.67-2.81-1.34Z" />
			<path class="cls-1" d="M6.87,24.66l1.13-8.01c.01-.11,.1-.19,.2-.19h1.72c.11,0,.18,.08,.17,.19l-.44,3.19,2.9-3.29c.07-.07,.14-.1,.23-.1h2.09c.16,0,.16,.12,.06,.22l-3.21,3.47,2.43,4.5c.07,.12,.02,.22-.11,.22h-1.99c-.1,0-.14-.02-.19-.11l-1.63-3.01-1,1.08-.26,1.85c-.01,.11-.11,.19-.22,.19h-1.72c-.11,0-.17-.08-.16-.19Z" />
			<path class="cls-1" d="M15.14,24.66l1.13-8.01c.01-.11,.1-.19,.2-.19h1.72c.11,0,.18,.08,.17,.19l-1.13,8.01c-.01,.11-.11,.19-.22,.19h-1.72c-.11,0-.17-.08-.16-.19Z" />
			<path d="M18.67,24.65l2.76-8.05c.04-.1,.13-.14,.23-.14h1.81c.1,0,.2,.05,.24,.14l2.76,8.05c.05,.12-.02,.2-.16,.2h-1.79c-.1,0-.18-.04-.22-.14l-.31-1.01h-2.87l-.31,1.01c-.04,.11-.11,.14-.2,.14h-1.79c-.13,0-.2-.08-.16-.2Zm4.75-2.79l-.85-2.75-.86,2.75h1.72Z" />
			<path d="M31.55,24.73l-1.66-2.71h-.26v2.64c0,.11-.08,.19-.19,.19h-1.72c-.11,0-.18-.08-.18-.19v-8.01c0-.11,.07-.19,.18-.19h2.64c2.06,0,3.03,1.13,3.03,2.78,0,1.16-.48,2.08-1.5,2.51l1.81,2.89c.08,.13,.02,.22-.12,.22h-1.82c-.1,0-.17-.04-.22-.12Zm-1.24-4.56c.55,0,1.09-.14,1.09-.94s-.54-.94-1.09-.94h-.68v1.87h.68Z" />
			<path d="M34.87,24.66v-8.01c0-.11,.07-.19,.18-.19h4.39c.11,0,.18,.08,.18,.19v1.46c0,.11-.07,.19-.18,.19h-2.48v1.4h2.33c.11,0,.19,.08,.19,.19v1.47c0,.11-.08,.18-.19,.18h-2.33v1.45h2.47c.11,0,.19,.08,.19,.19v1.46c0,.11-.08,.19-.19,.19h-4.38c-.11,0-.18-.08-.18-.19Z" />
			<path d="M45.65,24.73l-2.57-4.82v4.75c0,.11-.08,.19-.19,.19h-1.72c-.11,0-.18-.08-.18-.19v-8.01c0-.11,.07-.19,.18-.19h1.98c.1,0,.17,.04,.22,.12l2.58,4.84v-4.77c0-.11,.07-.19,.18-.19h1.71c.11,0,.19,.08,.19,.19v8.01c0,.11-.08,.19-.19,.19h-1.98c-.1,0-.17-.04-.22-.12Z" />
			<path d="M49.03,24.65l2.76-8.05c.04-.1,.13-.14,.23-.14h1.81c.1,0,.2,.05,.24,.14l2.76,8.05c.05,.12-.02,.2-.16,.2h-1.79c-.1,0-.18-.04-.22-.14l-.31-1.01h-2.87l-.31,1.01c-.04,.11-.11,.14-.2,.14h-1.79c-.13,0-.2-.08-.16-.2Zm4.75-2.79l-.85-2.75-.86,2.75h1.71Z" />
		</g>
		<path class="cls-1" d="M7.33,14.96c-.44,.33-.46,.31-.04-.05L24.23,.27c.42-.36,1.1-.36,1.52,0l6.44,5.43c.42,.35,1.18,.46,1.68,.24l4.09-1.81c.5-.22,1.23-.08,1.61,.31l10.11,10.41c.38,.39,.34,.45-.1,.11l-2.16-1.64c-.44-.33-1.25-.58-1.8-.55l-5.4,.29c-.55,.03-.61-.18-.14-.46l2.59-1.55c.47-.28,.55-.81,.18-1.18s-1.12-.61-1.67-.54l-3.32,.4c-.55,.07-.68-.21-.31-.61l1.03-1.09c.38-.4,.24-.68-.31-.62l-.62,.07c-.55,.06-.73-.26-.42-.71l.27-.39c.32-.45,.17-.62-.33-.39l-11.71,5.56c-.5,.24-.63,.07-.3-.37l2.68-3.56c.33-.44,.15-.74-.39-.67l-2.61,.33c-.55,.07-.76-.26-.48-.73l1.21-2.03c.28-.47,.09-.7-.42-.51l-.4,.15c-.52,.19-.79-.08-.6-.59l.36-1.01c.19-.52-.02-.67-.46-.34L7.33,14.96Z" />
	</g>
</svg>
