<svg xmlns="http://www.w3.org/2000/svg" viewBox="0 0 44.84 33.49"><defs><style>.cls-1{fill:#fff;}.cls-2{fill:#bcbec0;}.cls-10,.cls-2,.cls-4,.cls-8,.cls-9{stroke:#231f20;}.cls-10,.cls-2,.cls-3,.cls-4,.cls-5,.cls-7,.cls-8,.cls-9{stroke-miterlimit:10;}.cls-10,.cls-2,.cls-4,.cls-9{stroke-width:0.05px;}.cls-11,.cls-3,.cls-5,.cls-7,.cls-8{fill:none;}.cls-3{stroke:#603913;stroke-width:0.5px;}.cls-4{fill:#808285;}.cls-5,.cls-7{stroke:#808285;}.cls-5{stroke-width:0.8px;}.cls-10,.cls-6{fill:#414042;}.cls-11,.cls-7,.cls-8{stroke-width:0.3px;}.cls-9{fill:#939598;}.cls-11{stroke:#58595b;stroke-linejoin:round;}.cls-12{fill:#603913;}</style></defs><g id="Layer_2" data-name="Layer 2"><g id="Layer_1-2" data-name="Layer 1"><polygon class="cls-1" points="17.03 4.65 4.55 8.44 26.55 26.16 39.13 17.74 17.03 4.65"/><polygon class="cls-2" points="0.41 7.64 0.9 18.2 24.66 29.19 25.95 28.36 25.92 27.16 0.41 7.64"/><line class="cls-3" x1="16.25" y1="1.16" x2="38.77" y2="13.89"/><polygon class="cls-4" points="16.39 0.26 16.07 0.03 0.07 3.94 0.59 4.26 16.39 0.26"/><line class="cls-5" x1="15.95" y1="2.66" x2="40.4" y2="16.92"/><polygon class="cls-6" points="17.36 4.73 4.24 8.82 2.05 7.03 15.12 3.41 17.36 4.73"/><polygon class="cls-6" points="25.44 27.15 0.59 7.38 2.05 7.03 26.95 25.99 25.44 27.15"/><polygon class="cls-6" points="38.82 17.95 38.97 17.84 40.01 17.17 16.11 3.14 14.9 3.64 38.82 17.95"/><line class="cls-7" x1="38.93" y1="13.2" x2="38.17" y2="15.27"/><line class="cls-7" x1="35.78" y1="11.33" x2="35.01" y2="13.46"/><line class="cls-7" x1="32.62" y1="9.61" x2="32.07" y2="11.79"/><line class="cls-7" x1="29.66" y1="7.99" x2="29.21" y2="10.16"/><line class="cls-7" x1="27" y1="6.45" x2="26.64" y2="8.66"/><line class="cls-7" x1="24.43" y1="5" x2="24.08" y2="7.19"/><line class="cls-7" x1="21.96" y1="3.63" x2="21.7" y2="5.82"/><line class="cls-7" x1="19.59" y1="2.32" x2="19.45" y2="4.51"/><line class="cls-7" x1="17.43" y1="1.01" x2="17.29" y2="3.25"/><line class="cls-8" x1="39.9" y1="13.64" x2="16.29" y2="0.43"/><line class="cls-7" x1="23.87" y1="22.05" x2="23.36" y2="25.19"/><line class="cls-7" x1="20.39" y1="19.19" x2="19.99" y2="22.46"/><line class="cls-7" x1="17.04" y1="16.65" x2="16.8" y2="19.93"/><line class="cls-7" x1="14.06" y1="14.52" x2="13.83" y2="17.65"/><line class="cls-7" x1="11.15" y1="12.32" x2="11.15" y2="15.46"/><line class="cls-7" x1="8.6" y1="10.39" x2="8.6" y2="13.46"/><line class="cls-7" x1="6.21" y1="8.59" x2="6.21" y2="11.5"/><line class="cls-7" x1="3.92" y1="6.89" x2="4.01" y2="9.75"/><polygon class="cls-9" points="16.39 0.28 16.3 3.25 0.91 7.53 0.52 4.29 16.39 0.28"/><line class="cls-7" x1="1.73" y1="5.21" x2="1.91" y2="8.06"/><polygon class="cls-9" points="1.32 7.41 0.45 7.64 25.44 27.15 26.03 26.75 1.32 7.41"/><line class="cls-8" x1="24.68" y1="22.53" x2="0.52" y2="4.29"/><polygon class="cls-10" points="25.32 27 29.73 29.79 44.79 18.68 40.64 16.59 25.32 27"/><polygon class="cls-10" points="25.32 26.95 25.32 28.06 29.63 30.55 29.63 29.44 25.32 26.95"/><polygon class="cls-10" points="25.32 28.06 24.4 28.52 28.7 31.07 29.63 30.55 25.32 28.06"/><polygon class="cls-10" points="24.4 28.52 24.4 29.42 28.66 31.93 28.7 31.07 24.4 28.52"/><polygon class="cls-10" points="24.4 29.42 23.65 29.82 28.01 32.45 28.84 32.03 24.4 29.42"/><polygon class="cls-10" points="23.65 29.82 23.62 30.87 27.84 33.44 27.84 32.34 23.65 29.82"/><polygon class="cls-10" points="28.66 31.91 28.7 32.8 27.84 33.44 27.84 32.34 28.66 31.91"/><polygon class="cls-10" points="29.53 30.61 29.47 32.27 28.7 32.8 28.7 31.07 29.53 30.61"/><polyline class="cls-10" points="29.47 32.27 44.5 20.51 44.79 18.68 29.63 29.38 29.47 32.18"/><path class="cls-11" d="M24.26,24.58l.27-3.14c4.15-2.71,8.92-5.71,12.87-8.24-.2.84-.67,2.55-.85,3.25"/><polygon class="cls-12" points="0.68 5.48 0.74 6.12 23.57 23.62 23.66 23.04 0.68 5.48"/><path class="cls-4" d="M0,4,.41,7.64,1,7.49C.81,6.36.7,5.37.56,4.24.41,4.14.19,4.08,0,4Z"/></g></g></svg>