<svg xmlns="http://www.w3.org/2000/svg" width="141.7" height="116.854" viewBox="0 0 141.7 116.854">
	<g id="arrangementer-icon" transform="translate(2.092 2.232)">
		<path id="Path_100" data-name="Path 100" d="M82.662,56.768c0,2.929-2.431,5.39-6.005,7L42.384,79.207,8.14,94.645C3.365,96.783.025,93.473,2.105,88.786L17.133,54.249l15.174-34.39A9.638,9.638,0,0,1,40.509,14" transform="translate(-0.98 16.731)" fill="none" stroke="#231f20" stroke-miterlimit="10" stroke-width="5" />
		<path id="Path_101" data-name="Path 101" d="M21.7,17.14A73.234,73.234,0,0,1,28.408,23c1.816,1.816,3.486,3.662,5.038,5.536" transform="translate(38.041 22.789)" fill="none" stroke="#231f20" stroke-linecap="round" stroke-miterlimit="10" stroke-width="5" />
		<path id="Path_102" data-name="Path 102" d="M58.181,45.848c.205.381.381.762.557,1.142,2.724,6.005,3.134,11.044.557,13.621-4.921,4.921-18.982-1.113-31.373-13.5S9.466,20.743,14.417,15.7c2.519-2.549,7.47-2.168,13.358.469" transform="translate(20.659 16.696)" fill="none" stroke="#231f20" stroke-linecap="round" stroke-miterlimit="10" stroke-width="5" />
		<path id="Path_103" data-name="Path 103" d="M14.772,16.46a139.466,139.466,0,0,0-1.523,53.607c.439,2.4.908,4.716,1.435,6.943" transform="translate(18.078 21.477)" fill="none" stroke="#231f20" stroke-miterlimit="10" stroke-width="5" />
		<path id="Path_104" data-name="Path 104" d="M57.744,7.61c-.586,19.158-4.1,24.167-7.323,25.075-5.859,1.67-12.215-11.4-20.212-10.018-5.449.937-8.964,8.056-11.249,15.2" transform="translate(32.755 4.402)" fill="none" stroke="#231f20" stroke-linecap="round" stroke-linejoin="round" stroke-width="5" />
		<path id="Path_105" data-name="Path 105" d="M18.2,17.94" transform="translate(31.289 24.332)" fill="none" stroke="#231f20" stroke-linecap="round" stroke-linejoin="round" stroke-width="5" />
		<path id="Path_106" data-name="Path 106" d="M23.23,32.779c22.38-13.826,33.687-13.006,39.927-9.52,5.536,3.076,8.349,8.964,15.467,9.843s12.713-3.339,16.463-6.65" transform="translate(40.993 30.409)" fill="none" stroke="#231f20" stroke-linecap="round" stroke-linejoin="round" stroke-width="5" />
		<path id="Path_107" data-name="Path 107" d="M24.847,23.424a15.965,15.965,0,0,0-2.929-16.4C19.193,4.354,18.344,3.826,16.85,3.68" transform="translate(28.684 -3.18)" fill="none" stroke="#231f20" stroke-linecap="round" stroke-linejoin="round" stroke-width="5" />
		<path id="Path_108" data-name="Path 108" d="M51.786,21.153a13.534,13.534,0,0,0-13.651-3.4c-2.929,1.142-3.72,1.611-4.335,2.695" transform="translate(61.386 22.789)" fill="none" stroke="#231f20" stroke-linecap="round" stroke-linejoin="round" stroke-width="5" />
		<rect id="Rectangle_70" data-name="Rectangle 70" transform="translate(107.384 26.806) rotate(-45)" fill="none" stroke="#231f20" stroke-linecap="round" stroke-linejoin="round" stroke-width="5" />
		<circle id="Ellipse_24" data-name="Ellipse 24" cx="0.644" cy="0.644" r="1.318" transform="translate(122.927 47.721)" fill="#231f20" stroke="#231f20" stroke-linecap="round" stroke-linejoin="round" stroke-width="5" />
		<circle id="Ellipse_25" data-name="Ellipse 25" cx="1.318" cy="1.318" r="1.318" transform="translate(74.066 4.923)" fill="#231f20" stroke="#231f20" stroke-linecap="round" stroke-linejoin="round" stroke-width="5" />
		<rect id="Rectangle_71" data-name="Rectangle 71" transform="translate(42.827 14.741) rotate(-45)" fill="none" stroke="#231f20" stroke-linecap="round" stroke-linejoin="round" stroke-width="5" />
		<path id="Path_109" data-name="Path 109" d="M5.73,30.24A128.452,128.452,0,0,0,7.693,52.181c.41,2.4.908,4.716,1.435,6.942" transform="translate(7.23 48.063)" fill="none" stroke="#231f20" stroke-miterlimit="10" stroke-width="5" />
		<path id="Path_110" data-name="Path 110" d="M17.79,25.3a128.541,128.541,0,0,0,1.963,21.97c.41,2.373.908,4.687,1.435,6.943" transform="translate(30.498 38.532)" fill="none" stroke="#231f20" stroke-miterlimit="10" stroke-width="5" />
	</g>
</svg>
