<svg xmlns="http://www.w3.org/2000/svg" width="130.895" height="111.298" viewBox="0 0 130.895 111.298">
  <g id="kursus-icon" transform="translate(2.5 2.5)">
    <path id="Path_55" data-name="Path 55" d="M4.53,33.1V83.264a1.867,1.867,0,0,0,2.035,1.617H32.123a1.839,1.839,0,0,0,2.007-1.617V21" transform="translate(1.908 21.392)" fill="none" stroke="#000" stroke-miterlimit="10" stroke-width="5"/>
    <line id="Line_17" data-name="Line 17" y2="38.323" transform="translate(21.238 67.811)" fill="none" stroke="#000" stroke-miterlimit="10" stroke-width="5"/>
    <path id="Path_56" data-name="Path 56" d="M4.53,20.08" transform="translate(1.908 19.748)" fill="none" stroke="#000" stroke-miterlimit="10" stroke-width="5"/>
    <path id="Path_57" data-name="Path 57" d="M8.519,48.862a7.191,7.191,0,0,1-6.3-5.268V18.12" transform="translate(-2.22 16.245)" fill="none" stroke="#000" stroke-miterlimit="10" stroke-width="5"/>
    <path id="Path_58" data-name="Path 58" d="M48.01,19.43h-29.6a3.846,3.846,0,0,0-3.233,4.376" transform="translate(20.86 18.586)" fill="none" stroke="#000" stroke-miterlimit="10" stroke-width="5"/>
    <path id="Path_59" data-name="Path 59" d="M16.68,21" transform="translate(23.622 21.392)" fill="none" stroke="#000" stroke-miterlimit="10" stroke-width="5"/>
    <line id="Line_18" data-name="Line 18" y1="0.279" x2="29.599" transform="translate(39.271 28.261)" fill="none" stroke="#000" stroke-miterlimit="10" stroke-width="5"/>
    <path id="Path_60" data-name="Path 60" d="M26.93,15.93A4.459,4.459,0,0,1,30.8,20.807a4.459,4.459,0,0,1-3.874,4.877" transform="translate(41.94 12.331)" fill="none" stroke="#000" stroke-miterlimit="10" stroke-width="5"/>
    <circle id="Ellipse_6" data-name="Ellipse 6" cx="9.532" cy="9.532" r="9.532" transform="translate(11.706 6.55)" fill="none" stroke="#000" stroke-miterlimit="10" stroke-width="5"/>
    <path id="Path_61" data-name="Path 61" d="M9.84,29.15" transform="translate(11.398 35.957)" fill="none" stroke="#000" stroke-miterlimit="10" stroke-width="5"/>
    <path id="Path_62" data-name="Path 62" d="M10.93,5.79h96.546a5.1,5.1,0,0,1,5.073,5.073V65.825a5.073,5.073,0,0,1-5.073,5.073H34.453" transform="translate(13.346 -5.79)" fill="none" stroke="#000" stroke-miterlimit="10" stroke-width="5"/>
    <path id="Path_63" data-name="Path 63" d="M15.15,29.32" transform="translate(20.887 36.261)" fill="none" stroke="#000" stroke-miterlimit="10" stroke-width="5"/>
    <circle id="Ellipse_7" data-name="Ellipse 7" cx="10.758" cy="10.758" r="10.758" transform="translate(48.412 76.2)" fill="none" stroke="#000" stroke-miterlimit="10" stroke-width="5"/>
    <circle id="Ellipse_8" data-name="Ellipse 8" cx="10.758" cy="10.758" r="10.758" transform="translate(76.59 76.312)" fill="none" stroke="#000" stroke-miterlimit="10" stroke-width="5"/>
    <circle id="Ellipse_9" data-name="Ellipse 9" cx="10.758" cy="10.758" r="10.758" transform="translate(104.378 76.312)" fill="none" stroke="#000" stroke-miterlimit="10" stroke-width="5"/>
    <path id="Path_64" data-name="Path 64" d="M19.59,47.494C19.59,43.787,24.412,41,30.348,41s10.73,2.787,10.73,6.494" transform="translate(28.822 57.135)" fill="none" stroke="#000" stroke-miterlimit="10" stroke-width="5"/>
    <path id="Path_65" data-name="Path 65" d="M29.71,47.494C29.71,43.787,34.5,41,40.44,41S51.2,43.954,51.2,47.605" transform="translate(46.908 57.135)" fill="none" stroke="#000" stroke-miterlimit="10" stroke-width="5"/>
    <path id="Path_66" data-name="Path 66" d="M39.67,47.494C39.67,43.787,44.492,41,50.428,41s10.758,2.954,10.758,6.605" transform="translate(64.708 57.135)" fill="none" stroke="#000" stroke-miterlimit="10" stroke-width="5"/>
  </g>
</svg>
