<svg xmlns="http://www.w3.org/2000/svg" width="161.895" height="121.122" viewBox="0 0 161.895 121.122">
  <g id="lektion-logo2" transform="translate(2.464 2.5)">
    <path id="Path_80" data-name="Path 80" d="M3.4,15.59" transform="translate(2.969 6.424)" fill="none" stroke="#000" stroke-linecap="round" stroke-linejoin="round" stroke-width="5"/>
    <path id="Path_81" data-name="Path 81" d="M1.61,37.123,39.647,18.812,77.651.5l38.037,18.312,38,18.312" transform="translate(2.403 -0.5)" fill="none" stroke="#000" stroke-linecap="round" stroke-linejoin="round" stroke-width="5"/>
    <path id="Path_82" data-name="Path 82" d="M1.61,11.58,39.647,29.892l38,18.312,38.037-18.312,38-18.312" transform="translate(2.403 25.717)" fill="none" stroke="#000" stroke-linecap="round" stroke-linejoin="round" stroke-width="5"/>
    <path id="Path_83" data-name="Path 83" d="M4.69,43.978c.673-4.073-2.053-11.748,9.358-21.038" transform="translate(6.021 23.815)" fill="none" stroke="#000" stroke-linecap="round" stroke-linejoin="round" stroke-width="5"/>
    <circle id="Ellipse_17" data-name="Ellipse 17" cx="3.736" cy="3.736" r="3.736" transform="translate(6.975 67.827)" fill="none" stroke="#000" stroke-linecap="round" stroke-linejoin="round" stroke-width="5"/>
    <path id="Path_84" data-name="Path 84" d="M11.883,32c2.76.37,4.645,10.906,3.366,19.961-.572,3.8-2.087,13.464-7.607,14.878-3.568.842-4.814,0-5.992-3.938-.875-2.861,2.356-.4,8.314-12.286C15.047,40.115,10.671,31.8,11.883,32Z" transform="translate(-1.508 45.25)" fill="none" stroke="#000" stroke-linecap="round" stroke-linejoin="round" stroke-width="5"/>
    <path id="Path_85" data-name="Path 85" d="M18.23,19.69" transform="translate(38.058 16.125)" fill="none" stroke="#000" stroke-linecap="round" stroke-linejoin="round" stroke-width="5"/>
    <path id="Path_86" data-name="Path 86" d="M8.07,23.91" transform="translate(14.019 26.11)" fill="none" stroke="#000" stroke-linecap="round" stroke-linejoin="round" stroke-width="5"/>
    <path id="Path_87" data-name="Path 87" d="M108.213,63.882C97.811,73,87.242,78.188,63.006,78.828c-23.193.606-42.48-5.958-50.795-17.638-.3-12.926-1.248-18.873-1.551-31.294,18.244,7.2,51.4,23.361,49.953,22.688s37.7-17.908,51.7-25.582C109.893,45.884,109.088,54.289,108.213,63.882Z" transform="translate(18.8 35.944)" fill="none" stroke="#000" stroke-linecap="round" stroke-linejoin="round" stroke-width="5"/>
    <path id="Path_88" data-name="Path 88" d="M8.4,36.4" transform="translate(14.8 55.663)" fill="none" stroke="#000" stroke-linejoin="round" stroke-width="5"/>
    <path id="Path_89" data-name="Path 89" d="M25.36,44.29" transform="translate(54.929 74.332)" fill="none" stroke="#000" stroke-linejoin="round" stroke-width="5"/>
    <path id="Path_90" data-name="Path 90" d="M42.32,34.09" transform="translate(95.058 50.198)" fill="none" stroke="#000" stroke-linejoin="round" stroke-width="5"/>
  </g>
</svg>
