<svg xmlns="http://www.w3.org/2000/svg" width="157.362" height="108.58" viewBox="0 0 157.362 108.58">
	<g id="priser-icon2" transform="translate(2.5 2.5)">
		<circle id="Ellipse_18" data-name="Ellipse 18" cx="30.767" cy="30.767" r="30.767" transform="translate(90.829 0)" fill="none" stroke="#000" stroke-miterlimit="10" stroke-width="5" />
		<path id="Path_91" data-name="Path 91" d="M36.665,37.066H33.82V15.65h2.845Zm4.054-11.411-5,5.166-.49-3.008,3.76-4.152,7.16-8.01h3.466Zm-1.8.981,1.7-2.256,9.809,12.686h-3.6Z" transform="translate(71.199 3.902)" />
		<path id="Path_92" data-name="Path 92" d="M46.695,15.652a10.136,10.136,0,0,1,4.087.752,5.526,5.526,0,0,1,2.55,2.158,6.539,6.539,0,0,1,.883,3.531,6.082,6.082,0,0,1-.588,2.681,6.539,6.539,0,0,1-1.733,2.06,7.618,7.618,0,0,1-2.648,1.242l-.817.327H41.889V26.115h5a5.46,5.46,0,0,0,2.55-.556,3.727,3.727,0,0,0,1.537-1.471,4.512,4.512,0,0,0-.621-5,4.708,4.708,0,0,0-3.531-1.112h-4.25V37.068H39.6V15.652Zm.2,11.705H49.9L55.163,36.9v.163H52.09Z" transform="translate(84.317 3.9)" />
		<path id="Path_93" data-name="Path 93" d="M82.132,31.831V45.759c0,9.809-18.015,17.492-40.216,17.492S1.7,55.568,1.7,45.759V31.7" transform="translate(-1.7 40.329)" fill="none" stroke="#000" stroke-miterlimit="10" stroke-width="5" />
		<path id="Path_94" data-name="Path 94" d="M82.132,36.892c0,6.7-18.015,12.13-40.216,12.13S1.7,43.595,1.7,36.892c0-2.779,3.27-5.362,8.4-7.422" transform="translate(-1.7 35.268)" fill="none" stroke="#000" stroke-miterlimit="10" stroke-width="5" />
		<path id="Path_95" data-name="Path 95" d="M84.366,24.66V38.85c0,9.645-18.015,17.46-40.216,17.46S4,48.364,4,38.85V24.791" transform="translate(3.52 24.351)" fill="none" stroke="#000" stroke-miterlimit="10" stroke-width="5" />
		<path id="Path_96" data-name="Path 96" d="M75.375,22.32c5.624,2.093,8.991,4.741,8.991,7.651,0,6.7-18.015,12.13-40.216,12.13S4,36.673,4,29.971c0-1.962,1.537-3.793,4.218-5.427" transform="translate(3.52 19.04)" fill="none" stroke="#000" stroke-miterlimit="10" stroke-width="5" />
		<path id="Path_97" data-name="Path 97" d="M83.164,15.393V29.452c0,9.645-18.015,17.427-40.249,17.427S2.7,39.064,2.7,29.419V15.36" transform="translate(0.57 3.244)" fill="none" stroke="#000" stroke-miterlimit="10" stroke-width="5" />
		<ellipse id="Ellipse_19" data-name="Ellipse 19" cx="40.216" cy="12.13" rx="40.216" ry="12.13" transform="translate(3.302 6.506)" fill="none" stroke="#000" stroke-miterlimit="10" stroke-width="5" />
	</g>
</svg>
